<mxfile host="app.diagrams.net" modified="2022-09-27T08:13:48.944Z" agent="5.0 (Windows NT 10.0; Win64; x64) AppleWebKit/537.36 (KHTML, like Gecko) Chrome/105.0.0.0 Safari/537.36 Edg/105.0.1343.50" etag="z9mcfIl9nJQHCQbaprPK" version="20.3.6" type="github">
  <diagram id="1d4nGFuIeH1OPyMS3UdM" name="Page-1">
    <mxGraphModel dx="1417" dy="827" grid="1" gridSize="10" guides="1" tooltips="1" connect="1" arrows="1" fold="1" page="1" pageScale="1" pageWidth="1169" pageHeight="827" background="none" math="0" shadow="1">
      <root>
        <mxCell id="0" />
        <mxCell id="1" parent="0" />
        <mxCell id="9lLOX1-eoQInp4o5NhWY-8" style="edgeStyle=orthogonalEdgeStyle;rounded=0;orthogonalLoop=1;jettySize=auto;html=1;" parent="1" source="9lLOX1-eoQInp4o5NhWY-7" edge="1">
          <mxGeometry relative="1" as="geometry">
            <mxPoint x="280" y="360" as="targetPoint" />
          </mxGeometry>
        </mxCell>
        <mxCell id="9lLOX1-eoQInp4o5NhWY-32" style="edgeStyle=orthogonalEdgeStyle;rounded=0;orthogonalLoop=1;jettySize=auto;html=1;entryX=0.567;entryY=0.033;entryDx=0;entryDy=0;entryPerimeter=0;" parent="1" source="9lLOX1-eoQInp4o5NhWY-7" target="9lLOX1-eoQInp4o5NhWY-10" edge="1">
          <mxGeometry relative="1" as="geometry">
            <Array as="points">
              <mxPoint x="528" y="310" />
            </Array>
          </mxGeometry>
        </mxCell>
        <mxCell id="9lLOX1-eoQInp4o5NhWY-7" value="The Grand Election" style="rounded=0;whiteSpace=wrap;html=1;" parent="1" vertex="1">
          <mxGeometry x="340" y="280" width="120" height="60" as="geometry" />
        </mxCell>
        <mxCell id="9lLOX1-eoQInp4o5NhWY-44" style="edgeStyle=orthogonalEdgeStyle;rounded=0;orthogonalLoop=1;jettySize=auto;html=1;" parent="1" source="9lLOX1-eoQInp4o5NhWY-9" target="9lLOX1-eoQInp4o5NhWY-14" edge="1">
          <mxGeometry relative="1" as="geometry" />
        </mxCell>
        <mxCell id="9lLOX1-eoQInp4o5NhWY-9" value="Maintain the Old Order" style="rounded=0;whiteSpace=wrap;html=1;" parent="1" vertex="1">
          <mxGeometry x="220" y="360" width="120" height="60" as="geometry" />
        </mxCell>
        <mxCell id="cUjtvMtSS1TBpcQT_s8V-16" value="" style="edgeStyle=orthogonalEdgeStyle;rounded=0;orthogonalLoop=1;jettySize=auto;html=1;" edge="1" parent="1" source="9lLOX1-eoQInp4o5NhWY-10" target="9lLOX1-eoQInp4o5NhWY-13">
          <mxGeometry relative="1" as="geometry" />
        </mxCell>
        <mxCell id="9lLOX1-eoQInp4o5NhWY-10" value="A New Paradise" style="rounded=0;whiteSpace=wrap;html=1;" parent="1" vertex="1">
          <mxGeometry x="460" y="360" width="120" height="60" as="geometry" />
        </mxCell>
        <mxCell id="9lLOX1-eoQInp4o5NhWY-46" style="edgeStyle=orthogonalEdgeStyle;rounded=0;orthogonalLoop=1;jettySize=auto;html=1;" parent="1" source="9lLOX1-eoQInp4o5NhWY-13" target="9lLOX1-eoQInp4o5NhWY-17" edge="1">
          <mxGeometry relative="1" as="geometry">
            <Array as="points">
              <mxPoint x="520" y="620" />
              <mxPoint x="520" y="620" />
            </Array>
          </mxGeometry>
        </mxCell>
        <mxCell id="9lLOX1-eoQInp4o5NhWY-13" value="Father Yak Takes Power&lt;br&gt;" style="rounded=0;whiteSpace=wrap;html=1;" parent="1" vertex="1">
          <mxGeometry x="460" y="490" width="120" height="60" as="geometry" />
        </mxCell>
        <mxCell id="cUjtvMtSS1TBpcQT_s8V-15" value="" style="edgeStyle=orthogonalEdgeStyle;rounded=0;orthogonalLoop=1;jettySize=auto;html=1;" edge="1" parent="1" source="9lLOX1-eoQInp4o5NhWY-14" target="cUjtvMtSS1TBpcQT_s8V-14">
          <mxGeometry relative="1" as="geometry" />
        </mxCell>
        <mxCell id="9lLOX1-eoQInp4o5NhWY-14" value="Shun Fancy Things" style="rounded=0;whiteSpace=wrap;html=1;" parent="1" vertex="1">
          <mxGeometry x="220" y="490" width="120" height="60" as="geometry" />
        </mxCell>
        <mxCell id="cUjtvMtSS1TBpcQT_s8V-18" value="" style="edgeStyle=orthogonalEdgeStyle;rounded=0;orthogonalLoop=1;jettySize=auto;html=1;" edge="1" parent="1" source="9lLOX1-eoQInp4o5NhWY-17" target="cUjtvMtSS1TBpcQT_s8V-17">
          <mxGeometry relative="1" as="geometry" />
        </mxCell>
        <mxCell id="9lLOX1-eoQInp4o5NhWY-17" value="Party Like it&#39;s 1699" style="rounded=0;whiteSpace=wrap;html=1;" parent="1" vertex="1">
          <mxGeometry x="465" y="630" width="120" height="60" as="geometry" />
        </mxCell>
        <mxCell id="cUjtvMtSS1TBpcQT_s8V-1" value="" style="shape=flexArrow;endArrow=classic;startArrow=classic;html=1;rounded=0;width=6.857142857142857;endSize=5.668571428571428;entryX=0;entryY=0.5;entryDx=0;entryDy=0;exitX=1;exitY=0.5;exitDx=0;exitDy=0;" edge="1" parent="1" source="9lLOX1-eoQInp4o5NhWY-9" target="9lLOX1-eoQInp4o5NhWY-10">
          <mxGeometry width="100" height="100" relative="1" as="geometry">
            <mxPoint x="360" y="389.5" as="sourcePoint" />
            <mxPoint x="440" y="389.5" as="targetPoint" />
          </mxGeometry>
        </mxCell>
        <mxCell id="cUjtvMtSS1TBpcQT_s8V-5" value="" style="edgeStyle=orthogonalEdgeStyle;rounded=0;orthogonalLoop=1;jettySize=auto;html=1;" edge="1" parent="1" source="cUjtvMtSS1TBpcQT_s8V-3" target="cUjtvMtSS1TBpcQT_s8V-4">
          <mxGeometry relative="1" as="geometry" />
        </mxCell>
        <mxCell id="cUjtvMtSS1TBpcQT_s8V-3" value="Communists in Power" style="rounded=0;whiteSpace=wrap;html=1;" vertex="1" parent="1">
          <mxGeometry x="1020" y="280" width="120" height="60" as="geometry" />
        </mxCell>
        <mxCell id="cUjtvMtSS1TBpcQT_s8V-7" value="" style="edgeStyle=orthogonalEdgeStyle;rounded=0;orthogonalLoop=1;jettySize=auto;html=1;" edge="1" parent="1" source="cUjtvMtSS1TBpcQT_s8V-4" target="cUjtvMtSS1TBpcQT_s8V-6">
          <mxGeometry relative="1" as="geometry" />
        </mxCell>
        <mxCell id="cUjtvMtSS1TBpcQT_s8V-4" value="New Industrialization" style="whiteSpace=wrap;html=1;rounded=0;" vertex="1" parent="1">
          <mxGeometry x="1020" y="420" width="120" height="60" as="geometry" />
        </mxCell>
        <mxCell id="cUjtvMtSS1TBpcQT_s8V-9" value="" style="edgeStyle=orthogonalEdgeStyle;rounded=0;orthogonalLoop=1;jettySize=auto;html=1;" edge="1" parent="1" source="cUjtvMtSS1TBpcQT_s8V-6" target="cUjtvMtSS1TBpcQT_s8V-8">
          <mxGeometry relative="1" as="geometry" />
        </mxCell>
        <mxCell id="cUjtvMtSS1TBpcQT_s8V-6" value="Abandon the old ways" style="whiteSpace=wrap;html=1;rounded=0;" vertex="1" parent="1">
          <mxGeometry x="1020" y="560" width="120" height="60" as="geometry" />
        </mxCell>
        <mxCell id="cUjtvMtSS1TBpcQT_s8V-11" value="" style="edgeStyle=orthogonalEdgeStyle;rounded=0;orthogonalLoop=1;jettySize=auto;html=1;" edge="1" parent="1" source="cUjtvMtSS1TBpcQT_s8V-8" target="cUjtvMtSS1TBpcQT_s8V-10">
          <mxGeometry relative="1" as="geometry" />
        </mxCell>
        <mxCell id="cUjtvMtSS1TBpcQT_s8V-8" value="Embrace the New" style="whiteSpace=wrap;html=1;rounded=0;" vertex="1" parent="1">
          <mxGeometry x="1020" y="700" width="120" height="60" as="geometry" />
        </mxCell>
        <mxCell id="cUjtvMtSS1TBpcQT_s8V-13" value="" style="edgeStyle=orthogonalEdgeStyle;rounded=0;orthogonalLoop=1;jettySize=auto;html=1;" edge="1" parent="1" source="cUjtvMtSS1TBpcQT_s8V-10" target="cUjtvMtSS1TBpcQT_s8V-12">
          <mxGeometry relative="1" as="geometry" />
        </mxCell>
        <mxCell id="cUjtvMtSS1TBpcQT_s8V-10" value="Tow the Line with Solomon" style="whiteSpace=wrap;html=1;rounded=0;" vertex="1" parent="1">
          <mxGeometry x="1020" y="840" width="120" height="60" as="geometry" />
        </mxCell>
        <mxCell id="cUjtvMtSS1TBpcQT_s8V-12" value="Worker&#39;s Paradise" style="whiteSpace=wrap;html=1;rounded=0;" vertex="1" parent="1">
          <mxGeometry x="1020" y="980" width="120" height="60" as="geometry" />
        </mxCell>
        <mxCell id="cUjtvMtSS1TBpcQT_s8V-14" value="Ask the Mainland for Trains" style="whiteSpace=wrap;html=1;rounded=0;" vertex="1" parent="1">
          <mxGeometry x="220" y="630" width="120" height="60" as="geometry" />
        </mxCell>
        <mxCell id="cUjtvMtSS1TBpcQT_s8V-20" value="" style="edgeStyle=orthogonalEdgeStyle;rounded=0;orthogonalLoop=1;jettySize=auto;html=1;" edge="1" parent="1" source="cUjtvMtSS1TBpcQT_s8V-17" target="cUjtvMtSS1TBpcQT_s8V-19">
          <mxGeometry relative="1" as="geometry" />
        </mxCell>
        <mxCell id="cUjtvMtSS1TBpcQT_s8V-17" value="Amish with Tunes&lt;br&gt;(get rid of Demiliterized zone)" style="whiteSpace=wrap;html=1;rounded=0;" vertex="1" parent="1">
          <mxGeometry x="465" y="770" width="120" height="60" as="geometry" />
        </mxCell>
        <mxCell id="cUjtvMtSS1TBpcQT_s8V-19" value="Finally pay the phone bill" style="whiteSpace=wrap;html=1;rounded=0;" vertex="1" parent="1">
          <mxGeometry x="465" y="910" width="120" height="60" as="geometry" />
        </mxCell>
        <mxCell id="cUjtvMtSS1TBpcQT_s8V-23" value="" style="edgeStyle=orthogonalEdgeStyle;rounded=0;orthogonalLoop=1;jettySize=auto;html=1;" edge="1" parent="1" source="cUjtvMtSS1TBpcQT_s8V-21" target="9lLOX1-eoQInp4o5NhWY-7">
          <mxGeometry relative="1" as="geometry" />
        </mxCell>
        <mxCell id="cUjtvMtSS1TBpcQT_s8V-21" value="No Time for Sin and Vice" style="whiteSpace=wrap;html=1;rounded=0;" vertex="1" parent="1">
          <mxGeometry x="340" y="140" width="120" height="60" as="geometry" />
        </mxCell>
      </root>
    </mxGraphModel>
  </diagram>
</mxfile>
